<svg width="46" height="46" viewBox="0 0 46 46" fill="none" xmlns="http://www.w3.org/2000/svg">
<g clip-path="url(#clip0_1_2350)">
<path d="M14.6357 31.0949C12.9393 30.9149 11.36 30.1448 10.1735 28.9192C7.37313 26.0257 7.43999 21.3593 10.343 18.5497L15.1335 13.9133C18.0269 11.113 22.7027 11.1894 25.503 14.0829C28.3034 16.9763 28.2365 21.6427 25.3335 24.4524L22.9382 26.7705" stroke="#FF6600" stroke-width="2" stroke-linecap="round" stroke-linejoin="round"/>
<path d="M31.3641 14.9047C33.0604 15.0847 34.6397 15.8548 35.8263 17.0804C38.6266 19.9739 38.5598 24.6403 35.6567 27.4499L30.8663 32.0863C27.9728 34.8866 23.2971 34.8102 20.4968 31.9167C17.6964 29.0233 17.7633 24.3569 20.6663 21.5472L23.0615 19.2291" stroke="#FF6600" stroke-width="2" stroke-linecap="round" stroke-linejoin="round"/>
</g>
<defs>
<clipPath id="clip0_1_2350">
<rect width="32" height="32" fill="white" transform="translate(0.375488 22.6299) rotate(-44.0633)"/>
</clipPath>
</defs>
</svg>
