<svg width="38" height="38" viewBox="0 0 38 38" fill="none" xmlns="http://www.w3.org/2000/svg">
<path fill-rule="evenodd" clip-rule="evenodd" d="M18.2776 6.99996C18.1361 6.99996 17.7877 7.03885 17.6025 7.40907L14.7621 13.0884C14.3125 13.986 13.4461 14.6097 12.4443 14.7528L6.08521 15.6691C5.66521 15.7297 5.52209 16.0408 5.47854 16.1715C5.43965 16.2975 5.37743 16.618 5.66676 16.8948L10.265 21.3126C10.9977 22.0173 11.3305 23.0331 11.1563 24.0271L10.0736 30.2648C10.0068 30.6553 10.251 30.8824 10.3599 30.9602C10.475 31.0473 10.783 31.22 11.1641 31.0208L16.8496 28.0731C17.7456 27.6111 18.8128 27.6111 19.7057 28.0731L25.3897 31.0193C25.7723 31.2168 26.0803 31.0442 26.197 30.9602C26.3059 30.8824 26.5501 30.6553 26.4832 30.2648L25.3974 24.0271C25.2232 23.0331 25.5561 22.0173 26.2888 21.3126L30.887 16.8948C31.1779 16.618 31.1156 16.296 31.0752 16.1715C31.0332 16.0408 30.8901 15.7297 30.4701 15.6691L24.111 14.7528C23.1108 14.6097 22.2443 13.986 21.7948 13.0868L18.9512 7.40907C18.7676 7.03885 18.4192 6.99996 18.2776 6.99996ZM10.8063 33.4444C10.1639 33.4444 9.52609 33.2422 8.98009 32.844C8.03743 32.1533 7.57543 31.0131 7.77609 29.8651L8.85876 23.6273C8.89921 23.3955 8.81987 23.1606 8.64876 22.9957L4.05054 18.578C3.20432 17.7675 2.90098 16.5697 3.25876 15.4575C3.61965 14.3328 4.57476 13.5286 5.75232 13.3606L12.1114 12.4444C12.3572 12.4102 12.5688 12.2593 12.6745 12.0446L15.5165 6.36374C16.0408 5.31685 17.0985 4.66663 18.2776 4.66663C19.4568 4.66663 20.5145 5.31685 21.0388 6.36374L23.8823 12.0431C23.9896 12.2593 24.1996 12.4102 24.4439 12.4444L30.803 13.3606C31.9805 13.5286 32.9356 14.3328 33.2965 15.4575C33.6543 16.5697 33.3494 17.7675 32.5032 18.578L27.905 22.9957C27.7339 23.1606 27.6561 23.3955 27.6965 23.6257L28.7808 29.8651C28.9799 31.0146 28.5179 32.1548 27.5736 32.844C26.617 33.5455 25.371 33.6404 24.3148 33.0897L18.6323 30.1451C18.4099 30.03 18.1439 30.03 17.9214 30.1451L12.239 33.0913C11.7848 33.3277 11.2948 33.4444 10.8063 33.4444Z" fill="#FD346E"/>
</svg>
